<?xml version="1.0" encoding="UTF-8"?>
<svg xmlns="http://www.w3.org/2000/svg" viewBox="0 0 500 500" width="500" height="500">
  <defs>
    <pattern id="tiles" width="32" height="32" patternUnits="userSpaceOnUse">
      <rect width="32" height="32" fill="#eef5ff"/>
      <path d="M0 0H32M0 16H32M0 32H32M0 0V32M16 0V32M32 0V32" stroke="#c8d8ea" stroke-width="1.25"/>
    </pattern>
    <filter id="shadowSm" x="-20%" y="-20%" width="140%" height="140%">
      <feDropShadow dx="0" dy="2" stdDeviation="2" flood-opacity="0.2"/>
    </filter>
    <filter id="shadowMd" x="-20%" y="-20%" width="140%" height="140%">
      <feDropShadow dx="0" dy="3" stdDeviation="3" flood-opacity="0.25"/>
    </filter>
    
  </defs>

  <!-- Floor background -->
  <rect x="0" y="0" width="500" height="500" fill="url(#tiles)"/>

  <!-- Reception counter centered -->
  <g filter="url(#shadowMd)" transform="translate(90,180)">
    <rect x="0" y="0" width="320" height="70" rx="8" fill="#e3eef9" stroke="#b5c9dd" stroke-width="3"/>
    <rect x="12" y="18" width="70" height="40" rx="6" fill="#cfe1f2"/>
    <rect x="238" y="18" width="70" height="40" rx="6" fill="#cfe1f2"/>
    <rect x="110" y="12" width="100" height="46" rx="6" fill="#ffffff" stroke="#c9d7e6"/>
    <circle cx="160" cy="35" r="6" fill="#6aa9ff"/>
  </g>

  <!-- Corridor behind reception (north) pushed near top -->
  <g>
    <!-- Corridor strip near top edge -->
    <rect x="180" y="24" width="140" height="56" fill="#eaf2fb" stroke="#bcd0e3" stroke-width="2"/>
    <!-- Left/right doorways leading to wings -->
    <rect x="120" y="36" width="36" height="28" fill="#e9f2fb" stroke="#bccfe2"/>
    <rect x="344" y="36" width="36" height="28" fill="#e9f2fb" stroke="#bccfe2"/>
    <!-- Back wall hint just above corridor -->
    <rect x="160" y="16" width="180" height="4" fill="#b5c9dd"/>
  </g>

  <!-- Top-center door indication on the northern edge -->
  <g>
    <!-- Top wall hint lines with central gap for a doorway -->
    <rect x="0" y="6" width="236" height="4" fill="#a8bed5"/>
    <rect x="264" y="6" width="236" height="4" fill="#a8bed5"/>
    <!-- Door threshold and swing arc -->
    <rect x="236" y="0" width="28" height="10" fill="#e9f2fb" stroke="#9fb5cc"/>
    <path d="M264 10 Q250 22 236 10" fill="none" stroke="#9fb5cc" stroke-width="2"/>
  </g>

  <!-- Side benches -->
  <g filter="url(#shadowSm)">
    <rect x="40" y="260" width="150" height="24" rx="6" fill="#cfe1f2" stroke="#b3c6da"/>
    <rect x="310" y="260" width="150" height="24" rx="6" fill="#cfe1f2" stroke="#b3c6da"/>
    <rect x="40" y="292" width="150" height="24" rx="6" fill="#cfe1f2" stroke="#b3c6da"/>
    <rect x="310" y="292" width="150" height="24" rx="6" fill="#cfe1f2" stroke="#b3c6da"/>
  </g>

  
</svg>
