<!-- filepath: c:\Users\franc\EPSI\M1\workshop\workshopm1\src\assets\hospital_stockage_room.svg -->
<svg width="500" height="500" viewBox="0 0 500 500" xmlns="http://www.w3.org/2000/svg">
  <!-- Sol -->
  <rect width="500" height="500" fill="#f8f9fa"/>
  
  <!-- Carrelage -->
  <defs>
    <pattern id="floorTiles" x="0" y="0" width="50" height="50" patternUnits="userSpaceOnUse">
      <rect width="50" height="50" fill="#e9ecef" stroke="#dee2e6" stroke-width="1"/>
    </pattern>
  </defs>
  <rect width="500" height="500" fill="url(#floorTiles)"/>
  
  <!-- Murs -->
  <rect x="0" y="0" width="500" height="20" fill="#6c757d"/>
  <rect x="0" y="0" width="20" height="500" fill="#6c757d"/>
  <rect x="480" y="0" width="20" height="500" fill="#6c757d"/>
  <rect x="0" y="480" width="500" height="20" fill="#6c757d"/>
  
  <!-- Étagères de stockage côté gauche -->
  <rect x="40" y="60" width="120" height="40" fill="#8d4925" stroke="#6f3d1f" stroke-width="2"/>
  <rect x="40" y="120" width="120" height="40" fill="#8d4925" stroke="#6f3d1f" stroke-width="2"/>
  <rect x="40" y="180" width="120" height="40" fill="#8d4925" stroke="#6f3d1f" stroke-width="2"/>
  <rect x="40" y="240" width="120" height="40" fill="#8d4925" stroke="#6f3d1f" stroke-width="2"/>
  
  <!-- Étagères de stockage côté droit -->
  <rect x="340" y="60" width="120" height="40" fill="#8d4925" stroke="#6f3d1f" stroke-width="2"/>
  <rect x="340" y="120" width="120" height="40" fill="#8d4925" stroke="#6f3d1f" stroke-width="2"/>
  <rect x="340" y="180" width="120" height="40" fill="#8d4925" stroke="#6f3d1f" stroke-width="2"/>
  <rect x="340" y="240" width="120" height="40" fill="#8d4925" stroke="#6f3d1f" stroke-width="2"/>
  
  <!-- Étagères centrales -->
  <rect x="200" y="80" width="100" height="30" fill="#8d4925" stroke="#6f3d1f" stroke-width="2"/>
  <rect x="200" y="130" width="100" height="30" fill="#8d4925" stroke="#6f3d1f" stroke-width="2"/>
  
  <!-- Table de préparation centrale -->
  <rect x="180" y="200" width="140" height="60" fill="#e9ecef" stroke="#adb5bd" stroke-width="2"/>
  <rect x="185" y="205" width="130" height="50" fill="#f8f9fa"/>
  
  <!-- Armoire sécurisée (coffre-fort médical) -->
  <rect x="200" y="320" width="100" height="80" fill="#495057" stroke="#343a40" stroke-width="3"/>
  <rect x="210" y="330" width="80" height="60" fill="#6c757d"/>
  <circle cx="250" cy="360" r="8" fill="#ffc107"/>
  <circle cx="250" cy="360" r="5" fill="#343a40"/>
  
  <!-- Boîtes et contenants sur les étagères -->
  <!-- Étagère gauche haut -->
  <rect x="50" y="65" width="25" height="30" fill="#28a745"/>
  <rect x="80" y="65" width="25" height="30" fill="#dc3545"/>
  <rect x="110" y="65" width="25" height="30" fill="#007bff"/>
  
  <!-- Étagère gauche milieu -->
  <rect x="50" y="125" width="25" height="30" fill="#ffc107"/>
  <rect x="80" y="125" width="25" height="30" fill="#6f42c1"/>
  <rect x="110" y="125" width="25" height="30" fill="#fd7e14"/>
  
  <!-- Étagère droite haut -->
  <rect x="350" y="65" width="25" height="30" fill="#20c997"/>
  <rect x="380" y="65" width="25" height="30" fill="#e83e8c"/>
  <rect x="410" y="65" width="25" height="30" fill="#6c757d"/>
  
  <!-- Étagère droite milieu -->
  <rect x="350" y="125" width="25" height="30" fill="#17a2b8"/>
  <rect x="380" y="125" width="25" height="30" fill="#28a745"/>
  <rect x="410" y="125" width="25" height="30" fill="#dc3545"/>
  
  <!-- Contenants spéciaux sur la table -->
  <circle cx="220" cy="230" r="15" fill="#28a745" opacity="0.8"/>
  <circle cx="250" cy="230" r="15" fill="#dc3545" opacity="0.8"/>
  <circle cx="280" cy="230" r="15" fill="#007bff" opacity="0.8"/>
  
  <!-- Étiquettes médicales -->
  <rect x="190" y="180" width="30" height="15" fill="#fff" stroke="#343a40" stroke-width="1"/>
  <rect x="230" y="180" width="30" height="15" fill="#fff" stroke="#343a40" stroke-width="1"/>
  <rect x="270" y="180" width="30" height="15" fill="#fff" stroke="#343a40" stroke-width="1"/>
  
  <!-- Porte de sortie -->
  <rect x="220" y="480" width="60" height="20" fill="#8d4925" stroke="#6f3d1f" stroke-width="2"/>
  
  <!-- Éclairage -->
  <circle cx="150" cy="50" r="20" fill="#fff3cd" opacity="0.6"/>
  <circle cx="350" cy="50" r="20" fill="#fff3cd" opacity="0.6"/>
  <circle cx="250" cy="150" r="20" fill="#fff3cd" opacity="0.6"/>
</svg>