<?xml version="1.0" encoding="UTF-8"?>
<svg xmlns="http://www.w3.org/2000/svg" viewBox="0 0 1000 1000" width="1000" height="1000">
  <defs>
    <linearGradient id="bgGrad" x1="0" y1="0" x2="0" y2="1">
      <stop offset="0%" stop-color="#0b0f17"/>
      <stop offset="100%" stop-color="#1a2233"/>
    </linearGradient>
    <linearGradient id="floorGrad" x1="0" y1="0" x2="0" y2="1">
      <stop offset="0%" stop-color="#111823"/>
      <stop offset="100%" stop-color="#0b1019"/>
    </linearGradient>
    <radialGradient id="lightGlow" cx="50%" cy="10%" r="30%">
      <stop offset="0%" stop-color="#c8d8ff" stop-opacity="0.35"/>
      <stop offset="100%" stop-color="#c8d8ff" stop-opacity="0"/>
    </radialGradient>
    <filter id="softBlur" x="-20%" y="-20%" width="140%" height="140%">
      <feGaussianBlur stdDeviation="1.5"/>
    </filter>
    <pattern id="tilePattern" width="80" height="80" patternUnits="userSpaceOnUse" patternTransform="skewX(-20) scale(1,0.8)">
      <rect width="80" height="80" fill="url(#floorGrad)"/>
      <path d="M0 0H80M0 40H80M0 80H80M0 0V80M40 0V80M80 0V80" stroke="#2a3448" stroke-opacity="0.35" stroke-width="2"/>
    </pattern>
    <linearGradient id="wallVignette" x1="0" y1="0" x2="1" y2="0">
      <stop offset="0%" stop-color="#000" stop-opacity="0.35"/>
      <stop offset="50%" stop-color="#000" stop-opacity="0"/>
      <stop offset="100%" stop-color="#000" stop-opacity="0.35"/>
    </linearGradient>
  </defs>

  <!-- Background wall -->
  <rect x="0" y="0" width="1000" height="640" fill="url(#bgGrad)"/>
  <rect x="0" y="0" width="1000" height="640" fill="url(#wallVignette)"/>

  <!-- Subtle wall grime -->
  <g opacity="0.25" stroke="#0e141e" stroke-width="2">
    <path d="M60 110c40 10 60-10 100 0 40 10 60-10 100 0" fill="none"/>
    <path d="M760 160c35 12 65-8 100 4 20 6 30 4 60-2" fill="none"/>
  </g>

  <!-- Broken window with bars -->
  <g transform="translate(680,80)">
    <rect x="0" y="0" width="240" height="160" rx="6" fill="#0e1622" stroke="#2e3a51" stroke-width="4"/>
    <rect x="10" y="12" width="220" height="136" fill="#0b1320" stroke="#2a3650" stroke-width="2"/>
    <!-- Bars -->
    <g stroke="#31415a" stroke-width="6">
      <line x1="45" y1="10" x2="45" y2="148"/>
      <line x1="120" y1="10" x2="120" y2="148"/>
      <line x1="195" y1="10" x2="195" y2="148"/>
    </g>
    <!-- Cracks -->
    <g stroke="#7fa9ff" stroke-opacity="0.25" stroke-width="2">
      <path d="M40 60l20 12-8 10 18 8-10 12" fill="none"/>
      <path d="M170 40l-12 16 24 8-10 14 16 10-8 10" fill="none"/>
    </g>
  </g>

  <!-- Caution sign on wall -->
  <g transform="translate(90,160)">
    <polygon points="0,70 60, -30 120,70" fill="#f5c542" stroke="#2e2a1a" stroke-width="4"/>
    <rect x="56" y="20" width="8" height="28" rx="2" fill="#1f1b0c"/>
    <rect x="56" y="54" width="8" height="8" rx="2" fill="#1f1b0c"/>
  </g>

  <!-- Hanging light -->
  <g transform="translate(480,0)">
    <rect x="-4" y="0" width="8" height="40" fill="#2a3448"/>
    <rect x="-80" y="40" width="160" height="28" rx="6" fill="#2f3b54" stroke="#415274" stroke-width="3"/>
  </g>

  <!-- Light cone -->
  <ellipse cx="500" cy="110" rx="320" ry="200" fill="url(#lightGlow)"/>

  <!-- Bed silhouette -->
  <g transform="translate(150,520)">
    <rect x="0" y="-90" width="340" height="30" rx="8" fill="#2b374d"/>
    <rect x="280" y="-170" width="40" height="100" rx="6" fill="#2b374d"/>
    <rect x="0" y="-170" width="180" height="55" rx="10" fill="#3a4a66"/>
    <rect x="0" y="-115" width="340" height="30" rx="8" fill="#2b374d"/>
    <g fill="#1e2738">
      <circle cx="30" cy="-50" r="14"/>
      <circle cx="310" cy="-50" r="14"/>
    </g>
  </g>

  <!-- Floor -->
  <rect x="0" y="640" width="1000" height="360" fill="#0b1019"/>
  <rect x="0" y="640" width="1000" height="360" fill="url(#tilePattern)"/>
  <rect x="0" y="640" width="1000" height="360" fill="#000" opacity="0.12"/>

  <!-- Debris silhouettes -->
  <g fill="#1a2333" opacity="0.7">
    <rect x="600" y="870" width="80" height="16" rx="2"/>
    <rect x="680" y="860" width="40" height="10" rx="2"/>
    <rect x="740" y="880" width="60" height="12" rx="2"/>
  </g>

  <!-- Subtle dust -->
  <g fill="#c8d8ff" opacity="0.08" filter="url(#softBlur)">
    <circle cx="140" cy="140" r="3"/>
    <circle cx="220" cy="90" r="2"/>
    <circle cx="320" cy="120" r="2.5"/>
    <circle cx="880" cy="160" r="3"/>
    <circle cx="760" cy="120" r="2.5"/>
    <circle cx="540" cy="80" r="2"/>
  </g>

  <!-- Soft vignette -->
  <rect x="0" y="0" width="1000" height="1000" fill="#000" opacity="0.22"/>
</svg>
